<?xml version="1.0" encoding="utf-8"?>
<!-- Generator: Adobe Illustrator 22.0.0, SVG Export Plug-In . SVG Version: 6.00 Build 0)  -->
<svg version="1.1" id="图层_1" xmlns="http://www.w3.org/2000/svg" xmlns:xlink="http://www.w3.org/1999/xlink" x="0px" y="0px"
	 viewBox="0 0 137 28" style="enable-background:new 0 0 137 28;" xml:space="preserve">
<style type="text/css">
	.st0{fill:#EDF4FF;}
	.st1{fill:#FCFEFF;}
	.st2{fill:#D8E3F0;}
	.st3{fill:#69BAF9;}
	.st4{fill:#96DDFF;}
	.st5{fill:#FFC670;}
	.st6{fill:#3D3D63;}
	.st7{font-family:'SourceHanSansCN-Medium-GBpc-EUC-H';}
	.st8{font-size:17.1224px;}
</style>
<g>
	<path class="st0" d="M12.9,16.2c0,6.2,5,11.2,11.2,11.2s11.2-5,11.2-11.2S30.3,5,24.1,5S12.9,10,12.9,16.2L12.9,16.2z"/>
	<path class="st1" d="M35,13.5c-1.4-6-7.5-9.7-13.5-8.2c-2.3,0.6-4.4,1.9-6,3.7c1.3-1.1,2.8-1.9,4.5-2.3c6-1.5,12.1,2.1,13.6,8
		c0.9,3.5,0,7.3-2.3,10C34.6,22,36.1,17.6,35,13.5z"/>
	<path class="st2" d="M33.4,22.5c-3.5,5.1-10.5,6.4-15.6,2.8s-6.4-10.5-2.8-15.6c0.8-1.1,1.7-2.1,2.9-2.9C14.3,12,15.5,19,20.6,22.5
		C24.5,25.2,29.5,25.2,33.4,22.5z"/>
	<path class="st2" d="M15.9,19.6c0,1.1,0.9,2.1,2.1,2.1s2.1-0.9,2.1-2.1c0-1.1-0.9-2.1-2.1-2.1C16.8,17.5,15.9,18.5,15.9,19.6
		L15.9,19.6z"/>
	<path class="st2" d="M26.6,12.2c0,1,0.8,1.8,1.8,1.8c1,0,1.8-0.8,1.8-1.8l0,0c0-1-0.8-1.8-1.8-1.8C27.4,10.5,26.6,11.3,26.6,12.2z"
		/>
	<path class="st2" d="M29.8,15.5c0,0.5,0.4,0.9,0.9,0.9c0.5,0,0.9-0.4,0.9-0.9c0,0,0,0,0,0c0-0.5-0.4-0.9-0.9-0.9
		C30.2,14.6,29.8,15,29.8,15.5C29.8,15.5,29.8,15.5,29.8,15.5z"/>
	<path class="st2" d="M17.4,9.9c0,0.7,0.6,1.3,1.3,1.3c0.7,0,1.3-0.6,1.3-1.3c0,0,0,0,0,0c0-0.7-0.6-1.3-1.3-1.3
		C18,8.6,17.4,9.2,17.4,9.9C17.4,9.9,17.4,9.9,17.4,9.9z"/>
	<path class="st3" d="M11.8,9.9c0,1.7,1.4,3.1,3.1,3.1c1.7,0,3.1-1.4,3.1-3.1c0,0,0,0,0,0c0-1.7-1.4-3.1-3.1-3.1
		C13.2,6.8,11.8,8.2,11.8,9.9C11.8,9.9,11.8,9.9,11.8,9.9z"/>
	<path class="st4" d="M16.4,12.5c0.8-1.5,0.3-3.4-1.2-4.2c-0.9-0.5-2.1-0.5-3,0c0.4-0.7,1.1-1.2,1.9-1.4c1.7-0.3,3.3,0.8,3.6,2.4
		C18,10.6,17.5,11.8,16.4,12.5z"/>
	<path class="st2" d="M26.1,24.8c0,0.5,0.4,0.9,0.9,0.9c0.5,0,0.9-0.4,0.9-0.9s-0.4-0.9-0.9-0.9C26.5,23.9,26.1,24.3,26.1,24.8
		L26.1,24.8z"/>
	<path class="st5" d="M39.7,4L35,0.7c-0.3-0.2-0.7-0.2-0.9,0.1C34.1,1,34,1.1,34,1.3v1.6c-4,0-7.5,2.6-8.7,6.4
		c2.5-1.8,5.6-2.8,8.7-2.7v1.2c0,0.3,0.3,0.6,0.6,0.6c0.1,0,0.3,0,0.4-0.1L39.7,5c0.3-0.2,0.3-0.6,0.1-0.9C39.8,4.1,39.8,4.1,39.7,4
		L39.7,4z"/>
	<path class="st6" d="M21.1,22.5c-0.3,0-0.6,0-0.8,0.1c-0.3,0-0.6,0.3-0.6,0.6c0,0.3,0.3,0.6,0.6,0.6l0,0h0l0.9-0.1
		c0.3,0,0.6-0.3,0.6-0.7C21.8,22.7,21.5,22.4,21.1,22.5L21.1,22.5z M9.9,10.5c0.3,0,0.6-0.3,0.6-0.6c0-1.7,1-3.2,2.5-4
		c0.3-0.1,0.5-0.5,0.3-0.8s-0.5-0.5-0.8-0.3c0,0,0,0,0,0c-2,0.9-3.2,2.9-3.2,5.1C9.2,10.2,9.5,10.5,9.9,10.5
		C9.8,10.5,9.8,10.5,9.9,10.5z M10.7,14.3c0-0.5-0.4-0.9-0.9-0.9c-0.5,0-0.9,0.4-0.9,0.9c0,0.5,0.4,0.9,0.9,0.9
		C10.3,15.2,10.7,14.9,10.7,14.3C10.7,14.4,10.7,14.3,10.7,14.3z"/>
	<path class="st6" d="M15.3,4.1c0,0.5,0.4,0.9,0.9,0.9c0.5,0,0.9-0.4,0.9-0.9c0,0,0,0,0,0c0-0.5-0.4-0.9-0.9-0.9
		C15.7,3.3,15.3,3.7,15.3,4.1C15.3,4.1,15.3,4.1,15.3,4.1z"/>
	<path class="st6" d="M40.1,3.5l-4.7-3.3C34.8-0.2,34,0,33.6,0.5c-0.2,0.2-0.2,0.5-0.2,0.7v1c-1.4,0.1-2.7,0.5-3.9,1.1
		c-2-0.9-4.2-1.2-6.4-1c-0.3,0-0.6,0.3-0.6,0.7c0,0.3,0.3,0.6,0.7,0.6c1.7-0.1,3.4,0.1,5,0.6c-0.3,0.2-0.5,0.4-0.7,0.6
		c-1.1-0.3-2.2-0.5-3.3-0.5c-2.6,0-5.1,0.9-7.2,2.5c-1.8-1-4.1-0.3-5,1.5c-0.8,1.5-0.5,3.4,0.9,4.6c-0.1,0.4-0.2,0.7-0.3,1.1
		c-2.3,1.9-3.4,3.9-2.9,5.8c0.4,1.8,2.4,3.2,5.3,3.7c4,5.1,11.4,6,16.5,2c2.3-1.8,3.8-4.3,4.3-7.1c2.3-1.9,3.4-3.9,2.9-5.8
		c-0.2-0.8-0.6-1.4-1.2-1.9c-0.3-0.2-0.7,0-0.8,0.3c-0.1,0.2-0.1,0.4,0,0.6c0.4,0.3,0.7,0.8,0.9,1.3c0.3,1.1-0.3,2.4-1.5,3.6v-0.3
		c0-3.4-1.5-6.6-4-8.8c0.5-0.1,0.9-0.1,1.4-0.1v0.6c0,0.7,0.5,1.2,1.2,1.3c0.3,0,0.5-0.1,0.7-0.2l4.7-3.3c0.6-0.4,0.7-1.2,0.3-1.7
		C40.3,3.7,40.2,3.6,40.1,3.5L40.1,3.5z M14.9,7.4c1.4,0,2.5,1.1,2.5,2.5s-1.1,2.5-2.5,2.5s-2.5-1.1-2.5-2.5l0,0
		C12.4,8.5,13.5,7.4,14.9,7.4z M10.8,19.5c-0.3-1.1,0.3-2.3,1.5-3.6v0.3c0,2,0.5,4,1.5,5.8C12.2,21.4,11.1,20.6,10.8,19.5L10.8,19.5
		z M34.7,16.2c0,0.5,0,1-0.1,1.5c-1,0.7-2,1.3-3.1,1.9c-0.8-1-2.3-1.2-3.4-0.4c-0.6,0.5-0.9,1.1-0.9,1.9v0.2
		c-0.6,0.2-1.2,0.3-1.8,0.5c-0.6,0.1-1.1,0.3-1.7,0.4c-0.3,0-0.6,0.3-0.6,0.7c0,0.3,0.3,0.6,0.7,0.6c0,0,0.1,0,0.1,0
		c0.6-0.1,1.2-0.2,1.8-0.4s1.2-0.3,1.9-0.5c0.8,1.1,2.3,1.3,3.3,0.6c0.6-0.4,1-1.1,1-1.9c0-0.1,0-0.2,0-0.4c0.7-0.4,1.5-0.8,2.2-1.2
		c-1.8,5.5-7.8,8.6-13.3,6.8c-1.5-0.5-2.9-1.3-4.1-2.5c0.5,0,1,0.1,1.6,0.1c0.3,0,0.6-0.3,0.6-0.6s-0.3-0.6-0.6-0.6
		c-0.9,0-1.9-0.1-2.8-0.2c-1.3-1.8-2-4-2-6.2c0-0.9,0.2-1.8,0.4-2.7c0.3,0.1,0.6,0.1,1,0.1c2.1,0,3.7-1.7,3.7-3.8
		c0-0.8-0.3-1.5-0.7-2.1c2.5-1.8,5.6-2.5,8.6-1.8c-0.8,1-1.4,2.1-1.7,3.3c-0.1,0.3,0.1,0.7,0.4,0.8c0.1,0,0.1,0,0.2,0
		c0.1,0,0.3,0,0.4-0.1c1.4-1,3-1.8,4.7-2.2C33.1,9.6,34.7,12.8,34.7,16.2L34.7,16.2z M30.8,21.1c0,0.6-0.5,1.2-1.2,1.2
		c-0.6,0-1.2-0.5-1.2-1.2c0-0.6,0.5-1.2,1.2-1.2c0,0,0,0,0,0C30.3,19.9,30.8,20.4,30.8,21.1C30.8,21,30.8,21.1,30.8,21.1L30.8,21.1z
		 M39.4,4.5l-4.7,3.3V6.6c0-0.3-0.3-0.6-0.6-0.6c-2.5,0-5.1,0.6-7.3,1.8C28.2,5.1,31,3.5,34,3.5c0.3,0,0.6-0.3,0.6-0.6V1.3L39.4,4.5
		L39.4,4.5z"/>
</g>
<text transform="matrix(1 0 0 1 43.4443 20.0723)" class="st6 st7 st8">星河浏览器</text>
</svg>
